<?xml version="1.0" standalone="no"?>
<!DOCTYPE svg PUBLIC "-//W3C//DTD SVG 20010904//EN"
 "http://www.w3.org/TR/2001/REC-SVG-20010904/DTD/svg10.dtd">
<svg version="1.0" xmlns="http://www.w3.org/2000/svg"
 width="1280.000000pt" height="1280.000000pt" viewBox="0 0 1280.000000 1280.000000"
 preserveAspectRatio="xMidYMid meet">
<g transform="translate(0.000000,1280.000000) scale(0.100000,-0.100000)"
fill="#000000" stroke="none">
<path d="M6115 12790 c-38 -5 -140 -13 -225 -20 -1685 -124 -3295 -960 -4400
-2285 -845 -1013 -1363 -2281 -1460 -3570 -6 -77 -15 -184 -20 -238 -13 -126
-13 -412 0 -547 5 -58 14 -170 20 -250 137 -1803 1083 -3505 2560 -4606 966
-720 2120 -1156 3295 -1244 77 -6 184 -15 238 -20 126 -13 428 -13 554 0 54 5
161 14 238 20 1807 136 3509 1081 4611 2560 720 966 1158 2127 1244 3295 6 83
15 191 20 242 6 50 10 173 10 273 0 100 -4 223 -10 273 -5 51 -14 160 -20 242
-141 1916 -1201 3715 -2830 4801 -913 609 -1965 976 -3025 1054 -82 6 -191 15
-242 20 -106 12 -456 11 -558 0z"/>
</g>
</svg>
